<?xml version="1.0" standalone="no"?>
<!DOCTYPE svg PUBLIC "-//W3C//DTD SVG 20010904//EN"
 "http://www.w3.org/TR/2001/REC-SVG-20010904/DTD/svg10.dtd">
<svg version="1.0" xmlns="http://www.w3.org/2000/svg"
 width="400.000000pt" height="400.000000pt" viewBox="0 0 400.000000 400.000000"
 preserveAspectRatio="xMidYMid meet">
<metadata>
Created by potrace 1.11, written by Peter Selinger 2001-2013
</metadata>
<g transform="translate(0.000000,400.000000) scale(0.100000,-0.100000)"
fill="#000000" stroke="none">
<path d="M1939 3943 c8 -15 8 -23 1 -23 -5 0 -10 6 -10 13 0 8 -4 7 -10 -3 -8
-12 -10 -12 -11 5 0 18 -2 17 -12 -4 -9 -19 -9 -25 0 -28 7 -3 9 -11 6 -19 -4
-11 0 -14 19 -10 18 3 24 0 24 -16 0 -18 -1 -18 -13 -2 -7 10 -13 12 -13 6 0
-7 -9 -12 -20 -12 -12 0 -17 -5 -14 -14 3 -7 -2 -16 -10 -19 -11 -4 -13 -1 -9
10 4 11 2 14 -5 9 -15 -9 -15 -1 -2 25 8 15 7 21 -4 25 -13 5 -13 10 -4 27 6
12 -8 3 -30 -21 -23 -23 -42 -37 -42 -30 0 6 -3 8 -6 5 -4 -3 -14 -2 -24 3
-13 7 -22 4 -35 -10 -10 -11 -22 -17 -26 -14 -8 5 -13 -9 -10 -28 0 -3 -13 -3
-29 2 -17 5 -30 6 -30 2 0 -4 -10 4 -21 18 l-20 25 3 -31 c4 -29 2 -30 -29
-29 -18 1 -30 -2 -27 -7 3 -4 9 -6 13 -3 5 2 17 -2 27 -11 18 -15 18 -15 -1
-6 -11 5 -30 8 -43 6 -13 -2 -21 0 -18 5 3 5 -4 7 -16 3 -16 -4 -19 -2 -13 8
5 8 4 11 -3 6 -6 -3 -13 -2 -17 4 -3 5 -2 10 3 10 5 0 9 7 9 15 0 8 -4 15 -9
15 -8 0 -10 -9 -12 -54 -1 -12 -9 -20 -23 -21 -13 -1 -23 2 -23 6 0 3 -8 9
-18 11 -14 4 -18 -1 -20 -21 -1 -18 1 -22 7 -13 7 11 9 11 14 -1 7 -17 -19
-31 -29 -16 -4 6 -12 5 -22 -3 -14 -11 -14 -9 1 8 14 17 15 21 2 21 -8 0 -15
-5 -15 -11 0 -7 -3 -6 -8 1 -12 19 -199 37 -224 22 -11 -7 -11 -9 0 -9 7 0 10
-4 7 -10 -3 -5 -1 -10 4 -10 6 0 11 -7 11 -15 0 -9 6 -12 18 -8 9 3 14 3 10
-1 -8 -10 14 -36 25 -29 4 2 7 -3 7 -12 0 -10 -6 -15 -17 -13 -10 2 -17 10
-15 17 5 26 -16 0 -27 -31 -9 -29 -9 -31 3 -15 12 16 14 15 14 -8 0 -15 -8
-30 -20 -36 -16 -8 -17 -13 -7 -25 6 -8 9 -17 5 -21 -3 -3 -6 -1 -6 6 0 9 -4
9 -14 -1 -10 -9 -11 -15 -2 -20 8 -6 8 -8 -1 -8 -7 0 -13 -6 -13 -13 0 -17
-32 -47 -49 -47 -7 0 -10 4 -7 9 3 5 -2 15 -12 22 -16 13 -16 13 -2 -5 14 -18
13 -19 -3 -13 -12 5 -16 3 -11 -4 4 -7 -4 -21 -17 -31 -13 -11 -18 -16 -10
-12 9 4 12 3 8 -4 -8 -12 -47 -4 -47 11 0 5 -9 2 -19 -7 -16 -15 -20 -15 -28
-3 -7 12 -11 12 -25 -3 -15 -14 -15 -17 -3 -17 8 0 15 5 15 11 0 5 7 1 15 -10
8 -11 15 -14 15 -6 0 6 5 12 10 12 7 0 7 -7 -1 -21 -8 -15 -8 -19 0 -15 6 4
11 2 11 -3 0 -6 5 -11 11 -11 5 0 8 4 5 8 -3 5 1 9 8 9 7 0 13 -6 13 -13 0 -7
-4 -11 -8 -9 -3 3 -12 -2 -19 -10 -8 -10 -9 -15 -2 -15 7 0 9 -7 5 -17 -4 -11
-8 -12 -11 -5 -2 7 -8 12 -14 12 -6 0 -7 -8 -3 -17 5 -15 4 -16 -6 -5 -21 20
-34 14 -15 -7 17 -19 17 -19 -1 -15 -14 4 -19 0 -19 -15 0 -14 7 -21 21 -22
15 -1 16 -2 3 -6 -9 -2 -19 -11 -22 -19 -3 -8 -2 -13 3 -10 5 4 7 -3 4 -14 -6
-23 -21 -35 -31 -25 -3 3 0 11 8 16 13 9 12 10 -2 5 -11 -3 -19 2 -23 15 -4
10 -11 17 -16 13 -9 -5 24 -61 46 -76 6 -5 4 -8 -5 -8 -13 0 -13 -1 0 -11 12
-8 12 -12 2 -16 -10 -4 -10 -8 0 -21 10 -12 10 -14 1 -8 -9 4 -13 1 -13 -10 0
-14 -3 -14 -15 -4 -13 11 -14 10 -9 -4 3 -9 10 -16 14 -16 5 0 3 -11 -3 -24
-7 -14 -16 -24 -20 -23 -13 3 -19 -41 -7 -48 6 -4 7 1 3 11 -4 12 -3 15 5 10
16 -10 15 -58 0 -75 -11 -11 -10 -12 2 -6 12 6 13 5 3 -6 -7 -7 -13 -17 -13
-22 0 -4 6 -5 13 -1 10 6 10 4 0 -7 -7 -7 -13 -18 -13 -24 0 -5 4 -4 9 3 7 11
9 11 14 -2 4 -9 2 -16 -2 -16 -5 0 -12 -7 -15 -16 -5 -14 -4 -15 9 -4 13 11
15 10 12 -6 -1 -11 -6 -24 -10 -31 -4 -6 -1 -14 5 -16 10 -4 9 -8 -2 -16 -13
-9 -13 -11 -1 -11 11 0 10 -4 -5 -16 -10 -8 -14 -13 -8 -10 7 3 14 -1 18 -9 3
-8 2 -15 -3 -15 -10 0 -8 -31 4 -49 6 -11 4 -13 -10 -7 -15 5 -16 4 -5 -9 7
-8 17 -12 22 -9 5 3 4 -4 -4 -15 -11 -18 -11 -23 1 -30 7 -5 10 -14 6 -21 -4
-6 1 -20 11 -31 12 -13 14 -19 5 -17 -10 2 -14 -10 -15 -40 -1 -24 2 -46 6
-49 5 -2 6 -9 3 -14 -4 -5 -1 -9 6 -9 8 0 8 -4 -1 -15 -9 -11 -9 -15 -1 -15 7
0 10 -4 6 -9 -3 -5 -1 -12 4 -16 5 -3 8 -14 6 -25 -2 -11 0 -20 6 -20 5 0 9
-13 9 -30 0 -16 5 -30 10 -30 6 0 10 -5 10 -11 0 -5 -4 -8 -10 -4 -5 3 -3 -6
5 -21 7 -15 11 -33 8 -40 -3 -8 1 -14 8 -14 10 -1 9 -4 -3 -10 -14 -9 -15 -16
-6 -40 7 -23 7 -34 -3 -46 -7 -8 -8 -14 -3 -13 23 4 26 -2 8 -17 -10 -8 -13
-13 -6 -9 6 3 12 1 12 -4 0 -6 -7 -11 -15 -11 -9 0 -12 -6 -8 -17 4 -10 2 -14
-4 -10 -6 4 -14 0 -17 -9 -3 -8 -2 -12 4 -9 17 11 11 -7 -7 -21 -10 -7 -13
-14 -7 -14 6 0 10 -17 10 -39 -1 -22 1 -38 5 -35 3 2 9 -18 12 -44 3 -26 14
-65 23 -87 10 -22 17 -46 15 -54 -1 -7 2 -10 7 -7 11 7 35 -52 26 -65 -3 -5
-1 -9 3 -9 9 0 22 -27 68 -144 15 -38 33 -76 41 -84 8 -7 12 -18 9 -23 -4 -5
1 -9 9 -9 9 0 16 -5 16 -12 0 -6 3 -9 6 -5 4 3 13 -1 21 -9 8 -8 18 -12 23 -9
5 3 11 1 15 -5 4 -6 10 -8 15 -5 4 3 7 -6 5 -20 -1 -14 1 -25 5 -25 3 0 7 -12
7 -27 0 -16 4 -37 8 -48 5 -16 5 -17 -4 -5 -9 12 -10 8 -5 -15 3 -16 6 -37 7
-45 2 -8 7 -21 11 -29 7 -11 6 -12 -5 -6 -11 7 -12 6 -2 -6 7 -9 14 -41 15
-72 2 -31 7 -57 13 -57 5 0 3 -5 -5 -10 -10 -6 -11 -10 -2 -10 6 0 11 -6 10
-13 -2 -6 5 -11 14 -11 10 1 17 -1 16 -5 -2 -22 3 -41 11 -36 6 3 8 -4 6 -15
-2 -11 1 -20 6 -20 6 0 7 -5 4 -10 -3 -6 1 -10 9 -10 9 0 16 -5 16 -11 0 -5
-4 -7 -10 -4 -12 7 -2 -23 14 -44 8 -11 8 -13 -1 -7 -7 4 -13 3 -13 -2 0 -6 7
-13 16 -16 9 -4 14 -13 10 -21 -3 -8 0 -15 6 -15 7 0 6 -5 -2 -15 -10 -12 -9
-16 4 -21 9 -3 16 -15 16 -26 0 -10 -4 -17 -9 -14 -4 3 -7 -8 -5 -24 3 -23 -3
-33 -29 -52 -43 -31 -73 -61 -69 -71 1 -5 -2 -6 -7 -3 -5 3 -14 -1 -21 -8 -6
-8 -19 -15 -28 -15 -43 -2 -62 -6 -62 -11 0 -4 -10 -6 -22 -5 -28 2 -54 -22
-63 -58 -8 -30 -65 -64 -86 -51 -8 4 -9 3 -5 -5 5 -7 -3 -13 -24 -17 -17 -4
-33 -11 -36 -15 -3 -5 -14 -9 -25 -9 -10 0 -19 -5 -19 -11 0 -5 -4 -7 -10 -4
-5 3 -10 1 -10 -4 0 -6 -4 -11 -10 -11 -24 0 -94 -73 -97 -100 -2 -26 -15 -60
-22 -56 -3 2 -12 -2 -19 -10 -11 -12 229 -14 1658 -14 l1670 0 -1 103 c0 56
-4 111 -9 122 -5 11 -9 16 -9 11 -1 -5 -7 -3 -15 3 -9 7 -17 8 -20 2 -7 -10
-25 -9 -43 2 -8 5 -13 3 -13 -5 0 -9 -3 -9 -8 -2 -4 6 -36 11 -72 11 -76 1
-90 4 -108 21 -8 7 -17 10 -22 7 -5 -3 -10 0 -12 6 -2 7 -25 13 -51 14 -26 2
-53 8 -61 14 -7 6 -16 8 -19 4 -4 -3 -7 0 -7 7 0 7 -3 10 -6 7 -4 -3 -15 -2
-25 3 -12 7 -19 6 -22 -3 -3 -6 -6 -3 -7 8 -1 19 -1 19 -11 2 -10 -18 -11 -18
-26 0 -8 10 -12 13 -9 6 4 -7 -1 -11 -14 -10 -11 1 -20 4 -20 7 0 3 -12 7 -27
8 -16 1 -30 7 -31 12 -2 6 -8 7 -13 4 -6 -3 -21 2 -36 11 -14 9 -22 12 -19 6
4 -6 2 -11 -3 -11 -6 0 -11 5 -11 11 0 5 -5 7 -12 3 -7 -5 -9 -2 -5 9 4 11 2
14 -9 10 -8 -3 -14 1 -14 11 0 9 -8 16 -20 16 -11 0 -20 5 -20 11 0 5 -4 8 -8
5 -5 -3 -21 1 -36 9 -18 10 -24 10 -19 2 4 -7 0 -7 -10 2 -14 11 -17 11 -17 0
0 -9 -3 -10 -8 -3 -9 14 -62 24 -62 11 0 -5 -12 -2 -26 8 -15 9 -23 12 -20 6
10 -15 -7 -14 -23 2 -11 10 -12 9 -6 -3 5 -9 -1 -7 -15 5 -14 12 -20 14 -15 5
4 -8 -4 -4 -19 10 -20 18 -25 20 -20 7 3 -9 3 -17 -1 -17 -11 0 -34 27 -28 34
4 3 -2 6 -12 6 -15 0 -15 2 -5 16 11 12 11 15 -1 12 -9 -2 -13 4 -11 16 2 13
-1 16 -10 10 -11 -6 -11 -5 0 8 7 9 12 20 11 24 -1 5 0 12 1 17 5 15 8 27 9
43 0 8 6 12 11 9 6 -3 10 -1 10 5 0 6 4 9 9 5 5 -3 13 0 17 6 4 8 3 9 -4 5 -7
-4 -12 -2 -12 4 0 7 9 14 21 17 16 4 17 8 7 14 -10 7 -10 9 0 9 6 0 12 7 12
15 0 7 8 19 18 25 16 11 16 11 0 6 -10 -3 -18 -1 -18 4 0 6 7 10 15 10 9 0 12
6 8 17 -5 12 -3 14 7 8 10 -6 12 -4 7 9 -5 14 -3 17 8 12 8 -3 15 -1 15 4 0 6
-8 10 -17 10 -15 0 -14 2 3 16 10 8 13 12 5 8 -10 -5 -11 -1 -6 17 8 25 24 41
35 34 4 -2 7 2 7 10 0 11 -4 12 -14 3 -11 -8 -12 -7 -7 6 3 9 10 16 16 16 5 0
8 8 6 18 -2 12 3 16 17 14 16 -2 17 -1 6 7 -12 7 -12 13 -3 24 7 7 9 17 5 20
-9 10 -10 56 -1 51 4 -3 8 2 8 11 0 9 3 14 8 12 4 -3 7 5 7 18 0 13 -3 21 -6
20 -4 -3 -4 23 0 44 1 2 9 -3 19 -10 16 -13 16 -13 2 5 -14 18 -22 66 -11 66
3 0 6 18 6 39 0 22 -3 37 -7 34 -5 -2 -8 5 -8 17 0 13 4 19 12 14 7 -5 8 -3 2
7 -4 7 -9 35 -10 61 -2 36 1 48 12 48 8 0 14 5 14 10 0 6 7 10 15 10 9 0 12 6
8 17 -5 13 -2 15 11 10 10 -4 15 -3 11 3 -3 6 1 19 9 31 8 12 12 27 10 34 -3
7 4 28 15 48 11 19 17 38 13 41 -9 10 -12 37 -3 31 5 -2 8 12 8 33 0 20 3 53
6 72 3 19 6 41 6 48 1 7 6 10 11 7 6 -3 10 -2 10 4 0 5 -6 12 -12 14 -9 4 -10
6 -1 6 7 1 10 11 7 27 -3 14 -1 23 4 20 4 -2 9 4 9 15 1 12 -2 17 -10 12 -7
-3 -3 3 7 15 15 17 16 22 5 23 -8 0 -6 4 6 9 11 5 14 9 7 9 -8 1 -11 10 -8 26
3 13 1 27 -4 30 -6 3 -5 16 0 30 6 15 6 27 -1 30 -5 4 -7 11 -4 16 4 5 1 9 -4
9 -6 0 -11 7 -11 15 0 8 -5 15 -11 15 -6 0 -8 8 -5 18 5 14 4 14 -9 -2 -13
-17 -15 -18 -15 -3 0 9 -8 17 -17 17 -15 0 -16 2 -3 10 9 6 10 10 3 10 -6 0
-10 9 -8 20 2 11 1 20 -3 20 -4 0 -9 14 -10 32 -2 18 -6 35 -10 38 -13 9 -7
35 8 32 10 -1 8 3 -4 13 -14 10 -15 15 -6 15 11 0 11 3 2 12 -7 7 -8 17 -1 30
6 12 6 18 -1 18 -6 0 -6 8 2 21 10 17 10 23 1 26 -7 3 -13 9 -13 14 0 6 6 7
13 3 7 -5 7 -1 -2 10 -12 14 -12 19 -2 25 9 6 8 10 -5 15 -15 6 -16 9 -4 16
11 7 11 11 1 23 -9 11 -9 17 -1 22 8 5 6 13 -6 26 -17 19 -17 20 0 13 16 -6
17 -5 6 16 -10 18 -9 24 1 31 11 7 11 9 -1 9 -14 0 -19 19 -23 98 0 12 -5 22
-10 22 -5 0 -4 7 3 15 10 12 10 19 2 27 -14 14 -16 32 -3 23 5 -3 13 0 17 6 4
8 3 9 -4 5 -6 -3 -16 2 -21 13 -14 25 -14 34 -1 26 14 -9 12 1 -3 17 -8 7 -17
27 -21 43 -5 23 -4 27 5 15 9 -13 10 -12 5 3 -3 10 -6 23 -6 28 0 6 -6 7 -12
3 -7 -4 -4 3 6 15 17 18 17 21 3 15 -10 -3 -17 -1 -17 6 0 6 -5 8 -12 4 -10
-6 -10 -4 0 8 10 13 10 17 -4 22 -9 4 -14 12 -10 22 3 8 2 13 -3 10 -5 -3 -12
1 -15 10 -3 8 -11 12 -17 8 -7 -4 -7 1 1 16 7 14 8 20 1 16 -5 -4 -19 2 -31
14 -11 11 -17 20 -13 20 3 0 -4 9 -17 20 -12 11 -26 17 -31 15 -4 -3 -9 5 -11
17 -2 13 -9 22 -15 21 -6 -1 -17 4 -23 12 -7 8 -17 15 -23 15 -5 0 -16 8 -24
18 -8 9 -12 11 -8 5 4 -9 1 -11 -9 -7 -9 3 -16 13 -16 21 0 8 -5 11 -12 8 -7
-4 -2 3 12 15 14 12 20 19 14 16 -6 -3 -19 3 -29 14 -10 11 -24 20 -32 20 -7
0 -13 5 -13 10 0 6 -7 10 -16 10 -10 0 -14 5 -10 16 3 8 2 13 -3 10 -5 -3 -12
1 -15 10 -3 9 -11 12 -18 8 -10 -6 -11 -4 0 7 6 7 12 18 12 24 0 5 -4 4 -9 -4
-8 -12 -11 -12 -25 1 -8 9 -12 18 -9 22 4 3 -1 6 -10 6 -10 0 -17 7 -17 15 0
8 -4 16 -10 16 -5 1 -16 2 -22 3 -7 1 -12 10 -10 20 2 11 -1 15 -7 11 -6 -3
-11 -1 -11 5 0 6 -5 8 -12 4 -8 -5 -9 -2 -5 10 4 9 3 15 -2 11 -5 -3 -17 2
-25 11 -9 8 -16 13 -16 9 0 -3 -8 -1 -18 4 -13 7 -22 7 -29 0 -8 -8 -13 -8
-17 0 -4 5 -13 8 -21 4 -8 -3 -15 0 -15 7 0 7 -6 10 -14 7 -8 -3 -17 -1 -20 6
-2 7 -5 8 -5 1 -1 -12 -61 -6 -61 7 0 4 -9 6 -20 4 -11 -2 -26 3 -34 11 -8 8
-22 14 -32 14 -13 0 -14 -3 -4 -15 9 -10 9 -15 1 -15 -6 0 -11 4 -11 9 0 11
-56 41 -77 41 -12 0 -14 5 -12 28 0 4 -10 9 -22 12 -14 3 -23 14 -24 26 -1 12
-12 32 -24 45 -23 23 -23 23 -12 2z m15 -38 c-7 -16 -24 -21 -24 -6 0 8 7 13
27 20 1 1 0 -6 -3 -14z m-100 -36 c-8 -14 -24 -10 -24 6 0 9 6 12 15 9 8 -4
12 -10 9 -15z m-711 -112 c4 3 7 1 7 -5 0 -19 -15 -14 -36 11 -19 22 -19 22 2
4 11 -9 24 -14 27 -10z m1547 -287 c0 -5 -5 -10 -11 -10 -5 0 -7 5 -4 10 3 6
8 10 11 10 2 0 4 -4 4 -10z"/>
<path d="M1570 3910 c0 -11 4 -20 9 -20 5 0 7 9 4 20 -3 11 -7 20 -9 20 -2 0
-4 -9 -4 -20z"/>
<path d="M1650 3902 c0 -6 4 -13 10 -17 5 -3 7 -12 4 -20 -4 -8 -10 -12 -15
-9 -5 3 -6 -2 -3 -10 8 -21 24 -20 24 0 0 10 6 14 14 11 17 -7 53 30 41 41 -4
4 -10 1 -12 -6 -4 -10 -8 -10 -19 -1 -8 6 -14 8 -14 4 0 -4 -7 -2 -15 5 -9 8
-15 9 -15 2z"/>
<path d="M1764 3892 c0 -19 19 -24 31 -9 3 4 2 5 -2 2 -3 -3 -11 2 -17 11 -10
13 -12 13 -12 -4z"/>
<path d="M875 3490 c-5 -8 -4 -11 3 -6 5 3 12 1 14 -5 2 -7 17 -13 33 -14 17
-2 24 -1 17 2 -6 3 -9 9 -6 15 5 7 1 7 -12 0 -14 -8 -21 -6 -30 5 -9 13 -13
13 -19 3z"/>
<path d="M750 3305 c0 -5 5 -17 10 -25 5 -8 10 -10 10 -5 0 6 -5 17 -10 25 -5
8 -10 11 -10 5z"/>
<path d="M770 3251 c0 -6 4 -12 8 -15 5 -3 9 1 9 9 0 8 -4 15 -9 15 -4 0 -8
-4 -8 -9z"/>
<path d="M3033 1245 c0 -8 4 -12 9 -9 5 3 6 10 3 15 -9 13 -12 11 -12 -6z"/>
</g>
</svg>
